HIERARCHY
ROOT Hips
{
 OFFSET 0.000000 0.000000 0.000000
 CHANNELS 6 Xposition Yposition Zposition Yrotation Xrotation Zrotation
 JOINT Chest
 {
  OFFSET 0.000000 10.080317 -0.001081
  CHANNELS 3 Yrotation Xrotation Zrotation
  JOINT Chest2
  {
   OFFSET 0.000000 11.096852 0.001963
   CHANNELS 3 Yrotation Xrotation Zrotation
   JOINT Chest3
   {
    OFFSET 0.000000 10.026525 0.000000
    CHANNELS 3 Yrotation Xrotation Zrotation
    JOINT Chest4
    {
     OFFSET 0.000000 10.026525 0.000000
     CHANNELS 3 Yrotation Xrotation Zrotation
     JOINT Neck
     {
      OFFSET 0.000000 14.108171 0.000000
      CHANNELS 3 Yrotation Xrotation Zrotation
      JOINT Head
      {
       OFFSET 0.000000 9.333493 0.004668
       CHANNELS 3 Yrotation Xrotation Zrotation
       End Site
       {
        OFFSET 0.000000 17.851786 0.002438
       }
      }
     }
     JOINT RightCollar
     {
      OFFSET -3.071622 7.873185 0.000000
      CHANNELS 3 Yrotation Xrotation Zrotation
      JOINT RightShoulder
      {
       OFFSET -14.378659 0.000000 0.000000
       CHANNELS 3 Yrotation Xrotation Zrotation
       JOINT RightElbow
       {
        OFFSET -30.778728 0.000000 0.000000
        CHANNELS 3 Yrotation Xrotation Zrotation
        JOINT RightWrist
        {
         OFFSET -25.164217 0.000000 0.000000
         CHANNELS 3 Yrotation Xrotation Zrotation
         End Site
         {
          OFFSET -18.796788 0.000000 0.000000
         }
        }
       }
      }
     }
     JOINT LeftCollar
     {
      OFFSET 3.071622 7.873185 0.000000
      CHANNELS 3 Yrotation Xrotation Zrotation
      JOINT LeftShoulder
      {
       OFFSET 14.378659 0.000000 0.000000
       CHANNELS 3 Yrotation Xrotation Zrotation
       JOINT LeftElbow
       {
        OFFSET 30.778728 0.000000 0.000000
        CHANNELS 3 Yrotation Xrotation Zrotation
        JOINT LeftWrist
        {
         OFFSET 25.164217 0.000000 0.000000
         CHANNELS 3 Yrotation Xrotation Zrotation
         End Site
         {
          OFFSET 18.796788 0.000000 0.000000
         }
        }
       }
      }
     }
    }
   }
  }
 }
 JOINT RightHip
 {
  OFFSET -8.194923 0.005295 0.000540
  CHANNELS 3 Yrotation Xrotation Zrotation
  JOINT RightKnee
  {
   OFFSET 0.000000 -42.473320 -0.000511
   CHANNELS 3 Yrotation Xrotation Zrotation
   JOINT RightAnkle
   {
    OFFSET 0.000000 -41.474259 -0.000865
    CHANNELS 3 Yrotation Xrotation Zrotation
    JOINT RightToe
    {
     OFFSET 0.000000 -7.354994 16.712725
     CHANNELS 3 Yrotation Xrotation Zrotation
     End Site
     {
      OFFSET 0.000000 -1.553903 6.764158
     }
    }
   }
  }
 }
 JOINT LeftHip
 {
  OFFSET 8.194923 0.005295 0.000540
  CHANNELS 3 Yrotation Xrotation Zrotation
  JOINT LeftKnee
  {
   OFFSET 0.000000 -42.473320 -0.000511
   CHANNELS 3 Yrotation Xrotation Zrotation
   JOINT LeftAnkle
   {
    OFFSET 0.000000 -41.474259 -0.000865
    CHANNELS 3 Yrotation Xrotation Zrotation
    JOINT LeftToe
    {
     OFFSET 0.000000 -7.354994 16.712725
     CHANNELS 3 Yrotation Xrotation Zrotation
     End Site
     {
      OFFSET 0.000000 -1.553903 6.764158
     }
    }
   }
  }
 }
}
MOTION
Frames: 9
Frame Time: 0.016667
-38.946436 94.364435 593.294435 -172.914983 -7.419155 -0.675500 4.002679 2.820264 -0.138843 1.765723 1.241783 -0.068302 1.765723 1.241783 -0.068302 1.324379 0.931149 -0.054814 1.068914 15.554659 2.099031 1.217363 -7.299325 3.522386 -8.224893 -1.607763 10.096852 -3.905748 0.431503 65.349327 18.837059 10.944661 8.929024 -0.378493 0.741797 -7.846912 -6.981091 -3.721128 -4.890325 -2.929119 -8.643106 -65.543685 -20.337276 14.536456 -22.750597 1.422272 5.855524 7.171413 -12.340460 -12.026411 0.451266 -22.417567 24.492448 -7.677385 -9.788338 7.934888 -5.042281 -0.266487 -9.460208 3.439157 -6.255572 6.920574 -1.800264 -4.841310 13.508508 -6.659111 3.311157 -2.760019 -0.873577 -0.790594 -10.319666 8.139460
-39.027377 94.382839 592.285854 -173.131745 -7.107565 -0.611392 4.080721 2.750140 -0.162378 1.795628 1.189698 -0.093394 1.795628 1.189698 -0.093394 1.346854 0.892008 -0.073539 1.070214 15.520352 2.088076 1.223171 -7.363155 3.501708 -8.213383 -1.683044 10.130276 -3.939000 0.389206 65.261717 19.094003 11.144584 9.119554 -0.350335 0.754495 -7.840475 -6.862096 -3.703517 -4.875530 -2.841006 -8.507421 -65.543182 -19.949579 14.868399 -22.519404 1.445892 5.817447 7.265285 -12.267244 -11.728001 0.863431 -21.334279 21.828340 -6.217385 -9.585987 8.163799 -4.832833 -0.189937 -8.477630 2.029383 -6.158326 7.391100 -1.815578 -4.739170 13.245862 -6.641908 3.231511 -2.807737 -1.112298 -0.850269 -10.835563 8.455355
-39.079583 94.390562 591.295306 -173.322120 -6.726399 -0.529669 4.128051 2.607155 -0.216650 1.826487 1.138016 -0.122459 1.826487 1.138016 -0.122459 1.370048 0.853155 -0.095244 1.070168 15.468096 2.068892 1.229184 -7.460361 3.466287 -8.221068 -1.782830 10.151273 -3.941413 0.389049 65.224060 19.364998 11.293341 9.301132 -0.346691 0.766868 -7.803483 -6.718915 -3.703870 -4.822610 -2.676821 -8.333304 -65.592487 -19.563733 15.128278 -22.317816 1.455417 5.767416 7.373844 -12.094813 -11.490689 1.315971 -20.642872 19.112351 -5.032667 -9.501953 8.368321 -4.712274 -0.103085 -6.976942 0.734202 -6.085943 7.782388 -1.824626 -4.626591 12.952808 -6.617865 3.123724 -2.822296 -1.391005 -0.896919 -11.335693 8.779675
-39.113079 94.384281 590.280211 -173.534886 -6.366538 -0.451092 4.204345 2.513703 -0.250439 1.855575 1.090252 -0.151112 1.855575 1.090252 -0.151112 1.391909 0.817240 -0.116643 1.060531 15.400435 2.036430 1.221965 -7.586099 3.409724 -8.228952 -1.877476 10.166546 -3.946191 0.367334 65.207484 19.616733 11.340309 9.506480 -0.354107 0.758454 -7.765075 -6.555021 -3.686948 -4.744982 -2.490664 -8.060026 -65.690666 -19.225340 15.373547 -22.146820 1.461217 5.722571 7.502805 -11.755357 -11.173749 1.780348 -20.293707 16.374438 -3.994919 -9.522087 8.533138 -4.705122 -0.056749 -4.963844 -0.444212 -6.047314 8.205600 -1.834845 -4.494413 12.684137 -6.597887 3.058382 -2.883025 -1.704495 -0.973829 -11.819793 9.122881
-39.148734 94.368624 589.293846 -173.702791 -5.945310 -0.315419 4.242007 2.349100 -0.352212 1.886121 1.039760 -0.181592 1.886121 1.039760 -0.181592 1.414861 0.779268 -0.139401 1.035149 15.318130 1.990532 1.190116 -7.738852 3.334014 -8.253676 -1.961030 10.182844 -3.915016 0.390642 65.234950 19.870788 11.296508 9.670986 -0.366471 0.746385 -7.724769 -6.376646 -3.657820 -4.664757 -2.327051 -7.759959 -65.778852 -18.962276 15.627431 -22.003306 1.490612 5.698694 7.604002 -11.420313 -10.982854 2.170437 -20.106869 13.797842 -3.052009 -9.667160 8.701475 -4.805101 -0.061148 -2.780586 -1.343976 -6.139103 8.517148 -1.944324 -4.313190 12.422141 -6.525950 3.010152 -2.903145 -2.058259 -1.057480 -12.300154 9.476245
-39.180308 94.345645 588.273625 -173.903981 -5.584891 -0.219766 4.308702 2.265318 -0.390748 1.911321 0.994624 -0.205459 1.911321 0.994624 -0.205459 1.433789 0.745334 -0.157203 0.998312 15.214604 1.922008 1.145023 -7.931000 3.220417 -8.229470 -2.006050 10.212820 -3.879193 0.381455 65.249851 20.111338 11.250013 9.818434 -0.360400 0.756877 -7.681477 -6.175515 -3.595611 -4.599466 -2.220560 -7.450046 -65.886634 -18.684162 15.930792 -21.849378 1.514627 5.672225 7.724315 -11.183487 -10.726499 2.577728 -19.940795 11.377082 -2.186693 -9.823472 8.918845 -4.954297 -0.107524 -1.198467 -1.966760 -6.146406 8.933954 -2.006280 -4.210479 12.143807 -6.465527 2.993317 -2.881365 -2.423895 -1.173359 -12.840005 9.843136
-39.220032 94.309947 587.310076 -173.878019 -4.952642 -0.027118 4.148999 1.901381 -0.562406 1.935428 0.946725 -0.228828 1.935428 0.946725 -0.228828 1.451892 0.709328 -0.174617 0.945357 15.099044 1.834485 1.076847 -8.145379 3.077387 -8.179081 -2.027981 10.239722 -3.845933 0.382244 65.278124 20.329094 11.206685 9.956435 -0.344404 0.750464 -7.641923 -5.976417 -3.524772 -4.524073 -2.178664 -7.150183 -66.017131 -18.396624 16.285980 -21.670633 1.514349 5.651605 7.789315 -11.165456 -10.899374 2.889466 -19.783897 9.269256 -1.423952 -10.085903 9.203914 -5.205344 -0.126441 -0.116714 -2.316623 -6.282115 8.799391 -2.135166 -4.159827 12.183799 -6.419726 2.887730 -2.741631 -2.813999 -1.271101 -13.535782 10.233786
-39.230717 94.274512 586.231646 -174.224965 -4.818252 0.010602 4.386798 2.024660 -0.496462 1.957542 0.906984 -0.248209 1.957542 0.906984 -0.248209 1.468494 0.679452 -0.189061 0.878617 14.983940 1.724893 0.991398 -8.358883 2.898203 -8.141516 -2.049059 10.247101 -3.757871 0.401931 65.323554 20.492350 11.107650 10.078771 -0.336515 0.724047 -7.560478 -5.789732 -3.464501 -4.486117 -2.217732 -6.821574 -66.158414 -18.031512 16.688505 -21.431469 1.501192 5.637978 7.802172 -10.849138 -10.618326 3.292396 -19.600504 7.464169 -0.798212 -10.304693 9.519466 -5.428127 -0.152184 0.554794 -2.504794 -6.099180 9.701414 -2.114791 -3.969495 11.588627 -6.358408 2.726143 -2.805185 -3.224214 -1.355677 -13.909985 10.647697
-39.245664 94.226931 585.192286 -174.345871 -4.492621 0.128926 4.425785 1.934893 -0.540457 1.976356 0.868893 -0.267513 1.976356 0.868893 -0.267513 1.482619 0.650813 -0.203444 0.808297 14.898417 1.610324 0.901804 -8.517470 2.710810 -8.102784 -2.072960 10.275639 -3.658671 0.444803 65.346672 20.623789 11.018782 10.206181 -0.380760 0.726420 -7.456801 -5.640765 -3.384395 -4.448946 -2.305209 -6.534137 -66.335225 -17.639828 17.151802 -21.128703 1.538102 5.637092 7.794480 -10.944474 -10.632965 3.628738 -19.359850 6.009285 -0.300604 -10.380308 9.818185 -5.576072 -0.165760 0.933335 -2.595729 -6.069298 10.164672 -2.172842 -3.886570 11.277573 -6.297820 2.605665 -2.711585 -3.644204 -1.467140 -14.483720 11.057616
